<?xml version="1.0" encoding="UTF-8"?>
<svg id="Calque_1" data-name="Calque 1" xmlns="http://www.w3.org/2000/svg" viewBox="0 0 43 36">
  <defs>
    <style>
      .cls-1 {
        fill: #fff;
      }

      .cls-2 {
        fill: #000207;
      }

      .cls-3 {
        fill: none;
      }
    </style>
  </defs>
  <rect class="cls-3" width="43" height="36"/>
  <path class="cls-2" d="m43.74,19.83c0,2.38-1.5,3.68-4.03,3.68-1.46,0-4.95-.29-7.71-.34.15.4.22.83.19,1.26-.01,2.9-1.92,5.46-4.7,6.3.34,3.59-2.47,5.77-7.27,5.77-6.3,0-11.35-2.42-13.97-6.35-.49.45-1.13.69-1.79.68-2.72,0-4.46-2.9-4.46-7.12,0-5.53,2.13-9.02,5.77-9.02.63-.02,1.25.18,1.75.58,2.52-2.91,3.73-2.86,4.75-5.24.63-1.41.29-3.25.29-5.19,0-2.96,1.02-4.85,4.07-4.85,2.72,0,5.33,2.96,5.33,6.4,0,4.66-2.18,5.92-2.18,7.52,0,1.02,1.07,1.36,4.07,1.36,5.24,0,8.15-1.07,11.25-1.07,5.33,0,8.63,2.33,8.63,5.63"/>
  <path class="cls-1" d="m5.58,29.05c-.85-1.68-1.28-3.55-1.26-5.43-.12-2.63.72-5.22,2.38-7.27-.34-.12-.7-.19-1.07-.19-2.04,0-3.83,2.81-3.83,7.32,0,3.59,1.41,5.72,2.96,5.72.28,0,.56-.05.82-.15"/>
  <path class="cls-1" d="m41.94,20.17c0-2.38-2.72-4.07-6.74-4.07-2.57,0-6.21.92-10.47.92-4.8,0-6.98-.97-6.98-3.01s2.23-3.35,2.23-7.52c0-2.67-1.75-5.09-3.4-5.09-1.84,0-2.18,1.6-2.18,3.68,0,1.94.24,4.27-.48,5.82-1.16,2.47-3.01,3.25-5.14,5.72-1.94,2.28-2.86,4.32-2.86,6.79,0,6.79,6.3,11.54,14.3,11.54,3.44,0,5.38-1.7,5.09-3.78-1.63.15-3.27-.08-4.8-.68,5.77.39,9.65-2.09,9.65-6.01.01-.47-.09-.93-.29-1.36-2.18.1-4.34.46-6.44,1.07,2-1.85,4.65-2.82,7.37-2.72,2.76,0,6.84.39,8.87.39,1.65,0,2.28-.49,2.28-1.7"/>
  <path class="cls-2" d="m16.39,26.82c-2.69,0-5.36-.39-7.95-1.11-1.07-.34-.97-1.84.19-1.36,2.56.86,5.25,1.27,7.95,1.21,1.07,0,.87,1.26-.19,1.26"/>
  <path class="cls-2" d="m8.73,20.95c1.96.4,3.98.47,5.97.19.78-.15.97,1.11,0,1.26-2.04.35-4.12.33-6.16-.05-.39-.05-.66-.41-.61-.8.05-.39.41-.66.8-.61"/>
  <path class="cls-2" d="m14.79,30.74c-2.14-.4-4.17-1.24-5.97-2.47-.68-.49-.19-1.45.48-1.02,1.75,1.11,3.69,1.88,5.72,2.28,1.02.24.78,1.45-.24,1.21"/>
</svg>